<svg xmlns="http://www.w3.org/2000/svg" viewBox="4 -153 835 165">
  <path fill="#ffffff" d="M117-140L159.2000-140Q161-140 162.3000-138.7000Q163.6000-137.4000 163.6000-136.2000Q163.6000-135 163.4000-134.2000L117.4000-6.6000Q115.2000 0 108.4000 0L61.8000 0Q55.2000 0 53-6L6.6000-134.2000Q6.4000-135 6.4000-136.2000Q6.4000-137.4000 7.7000-138.7000Q9-140 10.8000-140L53-140Q56.6000-140 58.9000-137.9000Q61.2000-135.8000 62-133.4000L85-56.8000L108-133.4000Q109.8000-140 117-140M478.3000-12.6000Q458.6000 2 425 2Q391.4000 2 371.7000-12.6000Q352-27.2000 352-58.2000L352-134.6000Q352-136.8000 353.6000-138.4000Q355.2000-140 357.4000-140L399.2000-140Q401.4000-140 403-138.4000Q404.6000-136.8000 404.6000-134.6000L404.6000-55Q404.6000-46.8000 410.1000-42.4000Q415.6000-38 425-38Q434.4000-38 439.9000-42.4000Q445.4000-46.8000 445.4000-55L445.4000-134.6000Q445.4000-136.8000 447-138.4000Q448.6000-140 450.8000-140L492.6000-140Q494.8000-140 496.4000-138.4000Q498-136.8000 498-134.6000L498-58.2000Q498-27.2000 478.3000-12.6000M576.6000-86L576.6000-54Q576.6000-45.8000 582.1000-41.4000Q587.6000-37 596.5000-37Q605.4000-37 609.4000-39.8000Q613.4000-42.6000 616.1000-48Q618.8000-53.4000 623.2000-53.4000L666.4000-53.4000Q668.2000-53.4000 669.5000-52.1000Q670.8000-50.8000 670.8000-49Q670.8000-30.4000 653.2000-15Q644.4000-7.4000 629.8000-2.7000Q615.2000 2 595.4000 2Q575.6000 2 559.3000-4.1000Q543-10.2000 532.8000-24.1000Q522.6000-38 522.6000-58.2000L522.6000-81.8000Q522.6000-102 532.8000-116Q552-142 597-142Q615.2000-142 629.8000-137.3000Q644.4000-132.6000 653.2000-125Q670.8000-109.6000 670.8000-91Q670.8000-89.2000 669.5000-87.9000Q668.2000-86.6000 666.4000-86.6000L623.2000-86.6000Q618.8000-86.6000 616.1000-92Q613.4000-97.4000 609.4000-100.2000Q605.4000-103 596.5000-103Q587.6000-103 582.1000-98.6000Q576.6000-94.2000 576.6000-86M790.4000-140L831.6000-140Q833.8000-140 835.4000-138.4000Q837-136.8000 837-134.6000L837-5.4000Q837-3.2000 835.4000-1.6000Q833.8000 0 831.6000 0L790.4000 0Q788.2000 0 786.6000-1.6000Q785-3.2000 785-5.4000L785-48L745-48L745-5.4000Q745-3.2000 743.4000-1.6000Q741.8000 0 739.6000 0L698.4000 0Q696.2000 0 694.6000-1.5000Q693-3 693-5.4000L693-134.6000Q693-136.8000 694.6000-138.4000Q696.2000-140 698.4000-140L739.6000-140Q741.8000-140 743.4000-138.4000Q745-136.8000 745-134.6000L745-93.6000L785-93.6000L785-134.6000Q785-136.8000 786.6000-138.4000Q788.2000-140 790.4000-140"/>
  <path d="M 76,25 A 36,36 0 1 1 66,17" fill="none" stroke="#ffffff" stroke-width="7" stroke-linecap="round" transform="translate(152.54 -170.45) scale(2.009)"/>
  <path d="M 65,23 A 32,32 0 1 1 52,19" fill="none" stroke="#ffffff" stroke-width="6" stroke-linecap="round" transform="translate(152.54 -170.45) scale(2.009)"/>
</svg>
