<svg xmlns="http://www.w3.org/2000/svg" viewBox="0 0 1024 381">
  <path d="M 823.50 348.01 C823.11,346.22 823.10,341.45 823.48,337.42 C824.30,328.64 822.55,321.45 818.12,315.32 C815.78,312.10 812.80,310.09 803.59,305.52 C789.68,298.63 780.40,292.26 770.25,282.66 C762.59,275.40 755.00,266.57 755.00,264.91 C755.00,264.40 762.38,264.00 771.82,264.00 L 788.64 264.00 L 795.57 269.57 C803.96,276.31 819.62,284.18 830.50,287.13 C842.16,290.29 865.14,290.33 876.50,287.22 C929.78,272.59 962.12,211.63 945.30,157.50 C934.32,122.16 908.73,97.16 874.00,87.86 C862.52,84.79 843.25,84.78 831.74,87.85 C821.18,90.67 809.87,95.71 801.48,101.32 C793.25,106.83 781.40,118.32 776.29,125.73 L 772.67 131.00 L 758.80 131.00 C747.49,131.00 744.83,130.73 744.37,129.52 C743.62,127.57 749.64,116.92 757.04,107.10 C771.17,88.35 793.09,72.37 814.61,65.13 C827.73,60.72 836.68,59.50 855.00,59.59 C870.48,59.68 873.62,59.99 882.23,62.28 C903.74,68.02 921.69,78.51 938.04,94.92 C957.05,114.01 968.34,134.96 974.19,162.00 C977.38,176.78 977.18,201.71 973.73,216.63 C970.89,228.97 966.71,240.16 961.30,250.00 C943.37,282.57 905.46,316.68 864.10,337.45 C850.63,344.22 835.17,350.12 829.36,350.72 C824.22,351.26 824.21,351.25 823.50,348.01 ZM 229.50 252.37 C207.68,248.98 192.87,236.16 187.41,215.93 C185.03,207.08 185.03,186.92 187.42,178.00 C192.16,160.35 204.22,148.67 222.56,143.99 C237.67,140.12 255.95,142.04 268.36,148.79 C278.73,154.44 287.25,165.74 290.59,178.31 C292.52,185.54 292.44,207.85 290.47,215.54 C285.93,233.21 274.30,245.34 257.00,250.45 C251.46,252.09 235.06,253.23 229.50,252.37 ZM 244.50 223.90 C249.41,222.57 254.54,217.84 256.23,213.07 C257.01,210.87 257.49,204.50 257.48,196.50 C257.47,185.84 257.13,182.82 255.59,179.69 C252.70,173.81 247.89,170.69 240.94,170.19 C233.57,169.66 230.98,170.31 226.93,173.71 C221.48,178.30 220.05,182.92 220.03,196.00 C220.01,209.92 221.04,214.05 225.85,219.21 C230.76,224.47 236.80,225.99 244.50,223.90 ZM 594.79 251.48 C575.12,247.56 561.56,234.77 556.51,215.37 C554.52,207.72 554.53,187.61 556.54,179.09 C561.94,156.20 581.64,142.06 608.20,142.01 C619.38,142.00 625.72,143.35 634.95,147.73 C651.76,155.71 660.16,169.98 661.57,193.00 C662.34,205.50 660.27,217.05 655.53,226.63 C645.66,246.60 620.99,256.69 594.79,251.48 ZM 619.09 221.54 C625.34,217.44 626.50,213.61 626.50,197.00 C626.50,181.41 625.89,179.03 620.71,174.19 C617.87,171.53 610.80,169.23 606.68,169.62 C597.46,170.50 591.86,175.54 589.96,184.69 C588.44,191.95 589.21,209.21 591.26,214.00 C593.22,218.60 598.02,223.01 602.17,224.05 C607.28,225.34 615.07,224.18 619.09,221.54 ZM 73.47 249.77 C73.20,249.07 73.10,225.10 73.24,196.50 L 73.50 144.50 L 108.50 144.50 L 143.50 144.50 L 149.80 147.41 C167.83,155.74 174.85,178.36 165.64,198.48 C162.46,205.43 157.06,210.60 149.09,214.36 C142.63,217.40 142.14,217.46 124.77,217.84 L 107.05 218.22 L 106.77 234.36 L 106.50 250.50 L 90.23 250.77 C77.76,250.99 73.84,250.75 73.47,249.77 ZM 132.59 188.69 C135.57,185.22 135.91,177.68 133.23,174.37 C130.30,170.76 127.50,170.00 117.07,170.00 L 107.00 170.00 L 107.00 181.09 L 107.00 192.17 L 118.59 191.84 C129.86,191.51 130.24,191.42 132.59,188.69 ZM 312.62 249.44 C311.82,247.36 311.81,147.66 312.61,145.58 C313.12,144.24 315.40,144.00 327.51,144.00 L 341.80 144.00 L 354.58 161.75 C361.61,171.51 369.86,183.05 372.93,187.38 L 378.50 195.27 L 379.00 169.88 L 379.50 144.50 L 395.00 144.50 L 410.50 144.50 L 410.50 197.50 L 410.50 250.50 L 395.56 250.50 L 380.61 250.50 L 370.79 237.00 C365.39,229.57 357.27,218.37 352.74,212.11 L 344.50 200.72 L 344.00 225.61 L 343.50 250.50 L 328.37 250.78 C315.23,251.01 313.15,250.84 312.62,249.44 ZM 436.67 250.33 C436.30,249.97 436.00,225.89 436.00,196.83 L 436.00 144.00 L 466.25 144.01 C489.49,144.02 497.76,144.36 501.95,145.48 C525.64,151.78 537.96,169.57 537.97,197.50 C537.97,219.39 528.46,237.21 512.45,245.25 C502.40,250.30 496.76,251.00 465.85,251.00 C450.17,251.00 437.03,250.70 436.67,250.33 ZM 492.33 222.64 C496.49,220.90 500.63,215.99 501.96,211.22 C502.52,209.17 502.99,202.47 502.99,196.33 C503.00,175.71 497.89,170.14 478.86,170.04 C472.30,170.01 470.08,170.34 469.67,171.41 C469.37,172.19 469.09,184.34 469.03,198.41 L 468.94 224.00 L 479.00 224.00 C485.24,224.00 490.31,223.48 492.33,222.64 ZM 671.24 249.21 C671.49,248.22 679.44,235.82 688.90,221.65 L 706.09 195.89 L 702.67 191.20 C693.23,178.23 672.07,145.70 672.56,144.91 C672.87,144.41 680.90,144.00 690.40,144.00 C705.62,144.00 707.87,144.21 709.21,145.75 C710.05,146.71 714.22,153.01 718.47,159.75 C722.72,166.49 726.49,171.99 726.85,171.98 C727.21,171.98 731.34,165.79 736.03,158.23 L 744.57 144.50 L 762.28 144.23 C777.83,143.99 780.00,144.15 780.00,145.52 C780.00,146.39 772.56,158.07 763.47,171.49 L 746.95 195.89 L 764.47 221.91 C774.11,236.21 782.00,248.61 782.00,249.46 C782.00,250.79 779.55,251.00 764.03,251.00 L 746.05 251.00 L 741.28 243.48 C738.65,239.35 734.18,232.32 731.34,227.87 L 726.18 219.77 L 723.74 223.64 C722.40,225.76 718.22,232.45 714.45,238.50 C710.68,244.55 707.12,249.83 706.55,250.23 C705.97,250.64 697.68,250.98 688.13,250.98 C671.92,251.00 670.80,250.88 671.24,249.21 ZM 793.00 248.99 C793.00,247.89 798.42,232.93 805.04,215.74 C811.67,198.56 820.29,175.95 824.21,165.50 C828.13,155.05 831.76,145.94 832.29,145.25 C833.00,144.32 838.37,144.00 853.00,144.00 L 872.75 144.00 L 874.74 148.75 C875.83,151.36 877.68,155.98 878.85,159.00 C887.45,181.27 906.00,229.34 909.24,237.78 C911.41,243.43 912.93,248.73 912.62,249.55 C912.13,250.81 909.41,251.01 895.30,250.77 L 878.56 250.50 L 875.44 242.00 L 872.32 233.50 L 852.27 233.23 L 832.22 232.96 L 829.44 240.73 C827.91,245.00 826.23,249.06 825.71,249.75 C825.02,250.66 820.40,251.00 808.88,251.00 C793.65,251.00 793.00,250.92 793.00,248.99 ZM 863.00 207.25 C863.00,204.77 852.63,175.98 851.99,176.66 C851.31,177.38 841.00,206.40 841.00,207.58 C841.00,207.81 845.95,208.00 852.00,208.00 C858.05,208.00 863.00,207.66 863.00,207.25 Z" fill="#3B99F6"/>
</svg>
