<svg xmlns="http://www.w3.org/2000/svg" viewBox="0 0 272 266">
  <path d="M 119.47 263.33 C118.38,262.24 117.99,259.34 117.98,252.18 C117.94,236.88 114.05,231.08 100.16,225.63 C57.72,208.98 29.01,166.55 29.01,120.50 C29.01,65.60 69.24,17.77 123.33,8.38 C136.91,6.02 158.25,6.91 171.50,10.38 C210.73,20.66 242.70,53.01 253.14,93.00 C255.71,102.87 256.73,126.55 255.07,138.08 C252.76,154.11 245.33,172.15 234.93,187.00 C232.03,191.12 224.01,200.14 217.08,207.03 C197.92,226.12 179.36,239.36 154.22,251.89 C133.30,262.32 122.14,265.99 119.47,263.33 ZM 164.26 208.06 C183.94,203.03 202.96,190.29 214.82,174.21 C231.30,151.85 236.72,124.92 230.05,98.50 C227.49,88.38 219.51,72.35 213.00,64.28 C201.36,49.82 182.64,37.69 164.50,32.83 C153.15,29.80 132.85,29.76 121.37,32.75 C88.57,41.30 62.87,67.40 55.03,100.11 C52.06,112.48 52.22,129.69 55.43,142.33 C64.42,177.78 94.75,204.90 131.06,209.98 C140.10,211.24 155.24,210.37 164.26,208.06 Z" fill="#3B99F6"/>
</svg>
